<mxfile host="app.diagrams.net" agent="Mozilla/5.0 (Windows NT 10.0; Win64; x64) AppleWebKit/537.36 (KHTML, like Gecko) Chrome/140.0.0.0 Safari/537.36" version="28.2.5">
  <diagram name="Page-1" id="swFq11mHoHrQ0LMmGUcU">
    <mxGraphModel dx="983" dy="512" grid="1" gridSize="10" guides="1" tooltips="1" connect="1" arrows="1" fold="1" page="1" pageScale="1" pageWidth="3300" pageHeight="4681" math="0" shadow="0">
      <root>
        <mxCell id="0" />
        <mxCell id="1" parent="0" />
        <mxCell id="lIBIoVIttJ3UYo0YVn_F-3" value="" style="edgeStyle=orthogonalEdgeStyle;rounded=0;orthogonalLoop=1;jettySize=auto;html=1;" edge="1" parent="1" source="lIBIoVIttJ3UYo0YVn_F-1" target="lIBIoVIttJ3UYo0YVn_F-2">
          <mxGeometry relative="1" as="geometry" />
        </mxCell>
        <mxCell id="lIBIoVIttJ3UYo0YVn_F-1" value="Start" style="rounded=1;whiteSpace=wrap;html=1;" vertex="1" parent="1">
          <mxGeometry x="130" y="40" width="120" height="60" as="geometry" />
        </mxCell>
        <mxCell id="lIBIoVIttJ3UYo0YVn_F-5" value="" style="edgeStyle=orthogonalEdgeStyle;rounded=0;orthogonalLoop=1;jettySize=auto;html=1;" edge="1" parent="1" source="lIBIoVIttJ3UYo0YVn_F-2" target="lIBIoVIttJ3UYo0YVn_F-4">
          <mxGeometry relative="1" as="geometry" />
        </mxCell>
        <mxCell id="lIBIoVIttJ3UYo0YVn_F-2" value="n" style="shape=parallelogram;perimeter=parallelogramPerimeter;whiteSpace=wrap;html=1;fixedSize=1;" vertex="1" parent="1">
          <mxGeometry x="130" y="170" width="120" height="60" as="geometry" />
        </mxCell>
        <mxCell id="lIBIoVIttJ3UYo0YVn_F-7" value="" style="edgeStyle=orthogonalEdgeStyle;rounded=0;orthogonalLoop=1;jettySize=auto;html=1;" edge="1" parent="1" source="lIBIoVIttJ3UYo0YVn_F-4" target="lIBIoVIttJ3UYo0YVn_F-6">
          <mxGeometry relative="1" as="geometry" />
        </mxCell>
        <mxCell id="lIBIoVIttJ3UYo0YVn_F-4" value="i = 0" style="whiteSpace=wrap;html=1;" vertex="1" parent="1">
          <mxGeometry x="130" y="280" width="120" height="60" as="geometry" />
        </mxCell>
        <mxCell id="lIBIoVIttJ3UYo0YVn_F-15" value="" style="edgeStyle=orthogonalEdgeStyle;rounded=0;orthogonalLoop=1;jettySize=auto;html=1;" edge="1" parent="1" source="lIBIoVIttJ3UYo0YVn_F-6" target="lIBIoVIttJ3UYo0YVn_F-14">
          <mxGeometry relative="1" as="geometry">
            <Array as="points">
              <mxPoint x="190" y="480" />
              <mxPoint x="190" y="480" />
            </Array>
          </mxGeometry>
        </mxCell>
        <mxCell id="lIBIoVIttJ3UYo0YVn_F-16" value="TRUE" style="edgeLabel;html=1;align=center;verticalAlign=middle;resizable=0;points=[];" vertex="1" connectable="0" parent="lIBIoVIttJ3UYo0YVn_F-15">
          <mxGeometry x="-0.3495" relative="1" as="geometry">
            <mxPoint as="offset" />
          </mxGeometry>
        </mxCell>
        <mxCell id="lIBIoVIttJ3UYo0YVn_F-27" value="" style="edgeStyle=orthogonalEdgeStyle;rounded=0;orthogonalLoop=1;jettySize=auto;html=1;" edge="1" parent="1" source="lIBIoVIttJ3UYo0YVn_F-6" target="lIBIoVIttJ3UYo0YVn_F-26">
          <mxGeometry relative="1" as="geometry" />
        </mxCell>
        <mxCell id="lIBIoVIttJ3UYo0YVn_F-28" value="FALSE" style="edgeLabel;html=1;align=center;verticalAlign=middle;resizable=0;points=[];" vertex="1" connectable="0" parent="lIBIoVIttJ3UYo0YVn_F-27">
          <mxGeometry x="-0.2794" y="1" relative="1" as="geometry">
            <mxPoint as="offset" />
          </mxGeometry>
        </mxCell>
        <mxCell id="lIBIoVIttJ3UYo0YVn_F-6" value="(2**i) &amp;lt;= n" style="rhombus;whiteSpace=wrap;html=1;" vertex="1" parent="1">
          <mxGeometry x="150" y="390" width="80" height="80" as="geometry" />
        </mxCell>
        <mxCell id="lIBIoVIttJ3UYo0YVn_F-18" value="" style="edgeStyle=orthogonalEdgeStyle;rounded=0;orthogonalLoop=1;jettySize=auto;html=1;" edge="1" parent="1" source="lIBIoVIttJ3UYo0YVn_F-14" target="lIBIoVIttJ3UYo0YVn_F-17">
          <mxGeometry relative="1" as="geometry" />
        </mxCell>
        <mxCell id="lIBIoVIttJ3UYo0YVn_F-19" value="FALSE" style="edgeLabel;html=1;align=center;verticalAlign=middle;resizable=0;points=[];" vertex="1" connectable="0" parent="lIBIoVIttJ3UYo0YVn_F-18">
          <mxGeometry x="-0.319" relative="1" as="geometry">
            <mxPoint as="offset" />
          </mxGeometry>
        </mxCell>
        <mxCell id="lIBIoVIttJ3UYo0YVn_F-21" value="" style="edgeStyle=orthogonalEdgeStyle;rounded=0;orthogonalLoop=1;jettySize=auto;html=1;" edge="1" parent="1" source="lIBIoVIttJ3UYo0YVn_F-14" target="lIBIoVIttJ3UYo0YVn_F-20">
          <mxGeometry relative="1" as="geometry" />
        </mxCell>
        <mxCell id="lIBIoVIttJ3UYo0YVn_F-24" value="TRUE" style="edgeLabel;html=1;align=center;verticalAlign=middle;resizable=0;points=[];" vertex="1" connectable="0" parent="lIBIoVIttJ3UYo0YVn_F-21">
          <mxGeometry x="-0.2524" y="-1" relative="1" as="geometry">
            <mxPoint as="offset" />
          </mxGeometry>
        </mxCell>
        <mxCell id="lIBIoVIttJ3UYo0YVn_F-14" value="(2**i) == n" style="rhombus;whiteSpace=wrap;html=1;" vertex="1" parent="1">
          <mxGeometry x="150" y="510" width="80" height="80" as="geometry" />
        </mxCell>
        <mxCell id="lIBIoVIttJ3UYo0YVn_F-25" style="edgeStyle=orthogonalEdgeStyle;rounded=0;orthogonalLoop=1;jettySize=auto;html=1;" edge="1" parent="1" source="lIBIoVIttJ3UYo0YVn_F-17">
          <mxGeometry relative="1" as="geometry">
            <mxPoint x="190" y="360" as="targetPoint" />
            <Array as="points">
              <mxPoint x="100" y="680" />
              <mxPoint x="100" y="360" />
            </Array>
          </mxGeometry>
        </mxCell>
        <mxCell id="lIBIoVIttJ3UYo0YVn_F-17" value="i = i + 1" style="whiteSpace=wrap;html=1;" vertex="1" parent="1">
          <mxGeometry x="130" y="650" width="120" height="60" as="geometry" />
        </mxCell>
        <mxCell id="lIBIoVIttJ3UYo0YVn_F-23" value="" style="edgeStyle=orthogonalEdgeStyle;rounded=0;orthogonalLoop=1;jettySize=auto;html=1;" edge="1" parent="1" source="lIBIoVIttJ3UYo0YVn_F-20" target="lIBIoVIttJ3UYo0YVn_F-22">
          <mxGeometry relative="1" as="geometry" />
        </mxCell>
        <mxCell id="lIBIoVIttJ3UYo0YVn_F-20" value="Berabardir" style="shape=document;whiteSpace=wrap;html=1;boundedLbl=1;" vertex="1" parent="1">
          <mxGeometry x="290" y="510" width="120" height="80" as="geometry" />
        </mxCell>
        <mxCell id="lIBIoVIttJ3UYo0YVn_F-22" value="End" style="rounded=1;whiteSpace=wrap;html=1;" vertex="1" parent="1">
          <mxGeometry x="290" y="650" width="120" height="60" as="geometry" />
        </mxCell>
        <mxCell id="lIBIoVIttJ3UYo0YVn_F-30" value="" style="edgeStyle=orthogonalEdgeStyle;rounded=0;orthogonalLoop=1;jettySize=auto;html=1;" edge="1" parent="1" source="lIBIoVIttJ3UYo0YVn_F-26" target="lIBIoVIttJ3UYo0YVn_F-29">
          <mxGeometry relative="1" as="geometry" />
        </mxCell>
        <mxCell id="lIBIoVIttJ3UYo0YVn_F-26" value="Beraber deyil" style="shape=document;whiteSpace=wrap;html=1;boundedLbl=1;" vertex="1" parent="1">
          <mxGeometry x="500" y="390" width="120" height="80" as="geometry" />
        </mxCell>
        <mxCell id="lIBIoVIttJ3UYo0YVn_F-29" value="End" style="rounded=1;whiteSpace=wrap;html=1;" vertex="1" parent="1">
          <mxGeometry x="500" y="560" width="120" height="60" as="geometry" />
        </mxCell>
        <mxCell id="lIBIoVIttJ3UYo0YVn_F-33" value="" style="edgeStyle=orthogonalEdgeStyle;rounded=0;orthogonalLoop=1;jettySize=auto;html=1;" edge="1" parent="1" source="lIBIoVIttJ3UYo0YVn_F-31" target="lIBIoVIttJ3UYo0YVn_F-32">
          <mxGeometry relative="1" as="geometry" />
        </mxCell>
        <mxCell id="lIBIoVIttJ3UYo0YVn_F-31" value="Start" style="rounded=1;whiteSpace=wrap;html=1;" vertex="1" parent="1">
          <mxGeometry x="980" y="70" width="120" height="60" as="geometry" />
        </mxCell>
        <mxCell id="lIBIoVIttJ3UYo0YVn_F-35" value="" style="edgeStyle=orthogonalEdgeStyle;rounded=0;orthogonalLoop=1;jettySize=auto;html=1;" edge="1" parent="1" source="lIBIoVIttJ3UYo0YVn_F-32" target="lIBIoVIttJ3UYo0YVn_F-34">
          <mxGeometry relative="1" as="geometry" />
        </mxCell>
        <mxCell id="lIBIoVIttJ3UYo0YVn_F-32" value="array" style="shape=parallelogram;perimeter=parallelogramPerimeter;whiteSpace=wrap;html=1;fixedSize=1;" vertex="1" parent="1">
          <mxGeometry x="980" y="170" width="120" height="60" as="geometry" />
        </mxCell>
        <mxCell id="lIBIoVIttJ3UYo0YVn_F-37" value="" style="edgeStyle=orthogonalEdgeStyle;rounded=0;orthogonalLoop=1;jettySize=auto;html=1;" edge="1" parent="1" source="lIBIoVIttJ3UYo0YVn_F-34" target="lIBIoVIttJ3UYo0YVn_F-36">
          <mxGeometry relative="1" as="geometry" />
        </mxCell>
        <mxCell id="lIBIoVIttJ3UYo0YVn_F-34" value="cem = 0&lt;div&gt;i = 0&lt;/div&gt;&lt;div&gt;size = array.length()&lt;/div&gt;" style="whiteSpace=wrap;html=1;" vertex="1" parent="1">
          <mxGeometry x="980" y="270" width="120" height="60" as="geometry" />
        </mxCell>
        <mxCell id="lIBIoVIttJ3UYo0YVn_F-39" value="" style="edgeStyle=orthogonalEdgeStyle;rounded=0;orthogonalLoop=1;jettySize=auto;html=1;" edge="1" parent="1" source="lIBIoVIttJ3UYo0YVn_F-36" target="lIBIoVIttJ3UYo0YVn_F-38">
          <mxGeometry relative="1" as="geometry" />
        </mxCell>
        <mxCell id="lIBIoVIttJ3UYo0YVn_F-40" value="TRUE" style="edgeLabel;html=1;align=center;verticalAlign=middle;resizable=0;points=[];" vertex="1" connectable="0" parent="lIBIoVIttJ3UYo0YVn_F-39">
          <mxGeometry x="-0.3657" y="-2" relative="1" as="geometry">
            <mxPoint as="offset" />
          </mxGeometry>
        </mxCell>
        <mxCell id="lIBIoVIttJ3UYo0YVn_F-54" style="edgeStyle=orthogonalEdgeStyle;rounded=0;orthogonalLoop=1;jettySize=auto;html=1;entryX=0.5;entryY=0;entryDx=0;entryDy=0;" edge="1" parent="1" source="lIBIoVIttJ3UYo0YVn_F-36" target="lIBIoVIttJ3UYo0YVn_F-56">
          <mxGeometry relative="1" as="geometry">
            <mxPoint x="1270" y="530" as="targetPoint" />
          </mxGeometry>
        </mxCell>
        <mxCell id="lIBIoVIttJ3UYo0YVn_F-59" value="FALSE" style="edgeLabel;html=1;align=center;verticalAlign=middle;resizable=0;points=[];" vertex="1" connectable="0" parent="lIBIoVIttJ3UYo0YVn_F-54">
          <mxGeometry x="-0.6173" y="-1" relative="1" as="geometry">
            <mxPoint as="offset" />
          </mxGeometry>
        </mxCell>
        <mxCell id="lIBIoVIttJ3UYo0YVn_F-36" value="i &amp;lt; size" style="rhombus;whiteSpace=wrap;html=1;" vertex="1" parent="1">
          <mxGeometry x="980" y="370" width="120" height="80" as="geometry" />
        </mxCell>
        <mxCell id="lIBIoVIttJ3UYo0YVn_F-47" value="" style="edgeStyle=orthogonalEdgeStyle;rounded=0;orthogonalLoop=1;jettySize=auto;html=1;" edge="1" parent="1" source="lIBIoVIttJ3UYo0YVn_F-38" target="lIBIoVIttJ3UYo0YVn_F-46">
          <mxGeometry relative="1" as="geometry" />
        </mxCell>
        <mxCell id="lIBIoVIttJ3UYo0YVn_F-48" value="TRUE" style="edgeLabel;html=1;align=center;verticalAlign=middle;resizable=0;points=[];" vertex="1" connectable="0" parent="lIBIoVIttJ3UYo0YVn_F-47">
          <mxGeometry x="-0.3683" y="-1" relative="1" as="geometry">
            <mxPoint as="offset" />
          </mxGeometry>
        </mxCell>
        <mxCell id="lIBIoVIttJ3UYo0YVn_F-51" style="edgeStyle=orthogonalEdgeStyle;rounded=0;orthogonalLoop=1;jettySize=auto;html=1;entryX=1;entryY=0.5;entryDx=0;entryDy=0;" edge="1" parent="1" source="lIBIoVIttJ3UYo0YVn_F-38" target="lIBIoVIttJ3UYo0YVn_F-49">
          <mxGeometry relative="1" as="geometry">
            <mxPoint x="1130" y="690" as="targetPoint" />
            <Array as="points">
              <mxPoint x="1150" y="540" />
              <mxPoint x="1150" y="760" />
            </Array>
          </mxGeometry>
        </mxCell>
        <mxCell id="lIBIoVIttJ3UYo0YVn_F-52" value="FALSE" style="edgeLabel;html=1;align=center;verticalAlign=middle;resizable=0;points=[];" vertex="1" connectable="0" parent="lIBIoVIttJ3UYo0YVn_F-51">
          <mxGeometry x="-0.8656" y="2" relative="1" as="geometry">
            <mxPoint as="offset" />
          </mxGeometry>
        </mxCell>
        <mxCell id="lIBIoVIttJ3UYo0YVn_F-38" value="1 &amp;lt;= array[i] &amp;lt;= 20" style="rhombus;whiteSpace=wrap;html=1;" vertex="1" parent="1">
          <mxGeometry x="980" y="500" width="120" height="80" as="geometry" />
        </mxCell>
        <mxCell id="lIBIoVIttJ3UYo0YVn_F-50" value="" style="edgeStyle=orthogonalEdgeStyle;rounded=0;orthogonalLoop=1;jettySize=auto;html=1;" edge="1" parent="1" source="lIBIoVIttJ3UYo0YVn_F-46" target="lIBIoVIttJ3UYo0YVn_F-49">
          <mxGeometry relative="1" as="geometry" />
        </mxCell>
        <mxCell id="lIBIoVIttJ3UYo0YVn_F-46" value="cem = cem + array[i]" style="whiteSpace=wrap;html=1;" vertex="1" parent="1">
          <mxGeometry x="850" y="590" width="120" height="60" as="geometry" />
        </mxCell>
        <mxCell id="lIBIoVIttJ3UYo0YVn_F-53" style="edgeStyle=orthogonalEdgeStyle;rounded=0;orthogonalLoop=1;jettySize=auto;html=1;" edge="1" parent="1" source="lIBIoVIttJ3UYo0YVn_F-49">
          <mxGeometry relative="1" as="geometry">
            <mxPoint x="1040" y="350" as="targetPoint" />
            <Array as="points">
              <mxPoint x="830" y="760" />
              <mxPoint x="830" y="350" />
            </Array>
          </mxGeometry>
        </mxCell>
        <mxCell id="lIBIoVIttJ3UYo0YVn_F-49" value="i = i + 1" style="whiteSpace=wrap;html=1;" vertex="1" parent="1">
          <mxGeometry x="970" y="730" width="120" height="60" as="geometry" />
        </mxCell>
        <mxCell id="lIBIoVIttJ3UYo0YVn_F-58" value="" style="edgeStyle=orthogonalEdgeStyle;rounded=0;orthogonalLoop=1;jettySize=auto;html=1;" edge="1" parent="1" source="lIBIoVIttJ3UYo0YVn_F-56" target="lIBIoVIttJ3UYo0YVn_F-57">
          <mxGeometry relative="1" as="geometry" />
        </mxCell>
        <mxCell id="lIBIoVIttJ3UYo0YVn_F-56" value="cem" style="shape=document;whiteSpace=wrap;html=1;boundedLbl=1;" vertex="1" parent="1">
          <mxGeometry x="1220" y="540" width="120" height="80" as="geometry" />
        </mxCell>
        <mxCell id="lIBIoVIttJ3UYo0YVn_F-57" value="End" style="rounded=1;whiteSpace=wrap;html=1;" vertex="1" parent="1">
          <mxGeometry x="1220" y="680" width="120" height="60" as="geometry" />
        </mxCell>
        <mxCell id="lIBIoVIttJ3UYo0YVn_F-63" value="" style="edgeStyle=orthogonalEdgeStyle;rounded=0;orthogonalLoop=1;jettySize=auto;html=1;" edge="1" parent="1" source="lIBIoVIttJ3UYo0YVn_F-64" target="lIBIoVIttJ3UYo0YVn_F-66">
          <mxGeometry relative="1" as="geometry" />
        </mxCell>
        <mxCell id="lIBIoVIttJ3UYo0YVn_F-64" value="Start" style="rounded=1;whiteSpace=wrap;html=1;" vertex="1" parent="1">
          <mxGeometry x="1770" y="30" width="120" height="60" as="geometry" />
        </mxCell>
        <mxCell id="lIBIoVIttJ3UYo0YVn_F-65" value="" style="edgeStyle=orthogonalEdgeStyle;rounded=0;orthogonalLoop=1;jettySize=auto;html=1;" edge="1" parent="1" source="lIBIoVIttJ3UYo0YVn_F-66" target="lIBIoVIttJ3UYo0YVn_F-68">
          <mxGeometry relative="1" as="geometry" />
        </mxCell>
        <mxCell id="lIBIoVIttJ3UYo0YVn_F-66" value="array" style="shape=parallelogram;perimeter=parallelogramPerimeter;whiteSpace=wrap;html=1;fixedSize=1;" vertex="1" parent="1">
          <mxGeometry x="1770" y="130" width="120" height="60" as="geometry" />
        </mxCell>
        <mxCell id="lIBIoVIttJ3UYo0YVn_F-67" value="" style="edgeStyle=orthogonalEdgeStyle;rounded=0;orthogonalLoop=1;jettySize=auto;html=1;" edge="1" parent="1" source="lIBIoVIttJ3UYo0YVn_F-68" target="lIBIoVIttJ3UYo0YVn_F-73">
          <mxGeometry relative="1" as="geometry" />
        </mxCell>
        <mxCell id="lIBIoVIttJ3UYo0YVn_F-68" value="cem = 0&lt;div&gt;i = 0&lt;/div&gt;&lt;div&gt;size = array.length()&lt;/div&gt;" style="whiteSpace=wrap;html=1;" vertex="1" parent="1">
          <mxGeometry x="1770" y="230" width="120" height="60" as="geometry" />
        </mxCell>
        <mxCell id="lIBIoVIttJ3UYo0YVn_F-69" value="" style="edgeStyle=orthogonalEdgeStyle;rounded=0;orthogonalLoop=1;jettySize=auto;html=1;" edge="1" parent="1" source="lIBIoVIttJ3UYo0YVn_F-73" target="lIBIoVIttJ3UYo0YVn_F-78">
          <mxGeometry relative="1" as="geometry" />
        </mxCell>
        <mxCell id="lIBIoVIttJ3UYo0YVn_F-70" value="TRUE" style="edgeLabel;html=1;align=center;verticalAlign=middle;resizable=0;points=[];" vertex="1" connectable="0" parent="lIBIoVIttJ3UYo0YVn_F-69">
          <mxGeometry x="-0.3657" y="-2" relative="1" as="geometry">
            <mxPoint as="offset" />
          </mxGeometry>
        </mxCell>
        <mxCell id="lIBIoVIttJ3UYo0YVn_F-71" style="edgeStyle=orthogonalEdgeStyle;rounded=0;orthogonalLoop=1;jettySize=auto;html=1;entryX=0.5;entryY=0;entryDx=0;entryDy=0;" edge="1" parent="1" source="lIBIoVIttJ3UYo0YVn_F-73" target="lIBIoVIttJ3UYo0YVn_F-86">
          <mxGeometry relative="1" as="geometry">
            <mxPoint x="2060" y="490" as="targetPoint" />
          </mxGeometry>
        </mxCell>
        <mxCell id="lIBIoVIttJ3UYo0YVn_F-72" value="FALSE" style="edgeLabel;html=1;align=center;verticalAlign=middle;resizable=0;points=[];" vertex="1" connectable="0" parent="lIBIoVIttJ3UYo0YVn_F-71">
          <mxGeometry x="-0.6173" y="-1" relative="1" as="geometry">
            <mxPoint as="offset" />
          </mxGeometry>
        </mxCell>
        <mxCell id="lIBIoVIttJ3UYo0YVn_F-73" value="i &amp;lt; size" style="rhombus;whiteSpace=wrap;html=1;" vertex="1" parent="1">
          <mxGeometry x="1770" y="330" width="120" height="80" as="geometry" />
        </mxCell>
        <mxCell id="lIBIoVIttJ3UYo0YVn_F-74" value="" style="edgeStyle=orthogonalEdgeStyle;rounded=0;orthogonalLoop=1;jettySize=auto;html=1;" edge="1" parent="1" source="lIBIoVIttJ3UYo0YVn_F-78" target="lIBIoVIttJ3UYo0YVn_F-80">
          <mxGeometry relative="1" as="geometry" />
        </mxCell>
        <mxCell id="lIBIoVIttJ3UYo0YVn_F-75" value="TRUE" style="edgeLabel;html=1;align=center;verticalAlign=middle;resizable=0;points=[];" vertex="1" connectable="0" parent="lIBIoVIttJ3UYo0YVn_F-74">
          <mxGeometry x="-0.3683" y="-1" relative="1" as="geometry">
            <mxPoint as="offset" />
          </mxGeometry>
        </mxCell>
        <mxCell id="lIBIoVIttJ3UYo0YVn_F-76" style="edgeStyle=orthogonalEdgeStyle;rounded=0;orthogonalLoop=1;jettySize=auto;html=1;entryX=1;entryY=0.5;entryDx=0;entryDy=0;" edge="1" parent="1" source="lIBIoVIttJ3UYo0YVn_F-78" target="lIBIoVIttJ3UYo0YVn_F-82">
          <mxGeometry relative="1" as="geometry">
            <mxPoint x="1920" y="650" as="targetPoint" />
            <Array as="points">
              <mxPoint x="1940" y="500" />
              <mxPoint x="1940" y="720" />
            </Array>
          </mxGeometry>
        </mxCell>
        <mxCell id="lIBIoVIttJ3UYo0YVn_F-77" value="FALSE" style="edgeLabel;html=1;align=center;verticalAlign=middle;resizable=0;points=[];" vertex="1" connectable="0" parent="lIBIoVIttJ3UYo0YVn_F-76">
          <mxGeometry x="-0.8656" y="2" relative="1" as="geometry">
            <mxPoint as="offset" />
          </mxGeometry>
        </mxCell>
        <mxCell id="lIBIoVIttJ3UYo0YVn_F-78" value="array[i] % 2 == 0" style="rhombus;whiteSpace=wrap;html=1;" vertex="1" parent="1">
          <mxGeometry x="1770" y="460" width="120" height="80" as="geometry" />
        </mxCell>
        <mxCell id="lIBIoVIttJ3UYo0YVn_F-79" value="" style="edgeStyle=orthogonalEdgeStyle;rounded=0;orthogonalLoop=1;jettySize=auto;html=1;" edge="1" parent="1" source="lIBIoVIttJ3UYo0YVn_F-80" target="lIBIoVIttJ3UYo0YVn_F-82">
          <mxGeometry relative="1" as="geometry" />
        </mxCell>
        <mxCell id="lIBIoVIttJ3UYo0YVn_F-80" value="cem = cem + array[i]" style="whiteSpace=wrap;html=1;" vertex="1" parent="1">
          <mxGeometry x="1640" y="550" width="120" height="60" as="geometry" />
        </mxCell>
        <mxCell id="lIBIoVIttJ3UYo0YVn_F-81" style="edgeStyle=orthogonalEdgeStyle;rounded=0;orthogonalLoop=1;jettySize=auto;html=1;" edge="1" parent="1" source="lIBIoVIttJ3UYo0YVn_F-82">
          <mxGeometry relative="1" as="geometry">
            <mxPoint x="1830" y="310" as="targetPoint" />
            <Array as="points">
              <mxPoint x="1620" y="720" />
              <mxPoint x="1620" y="310" />
            </Array>
          </mxGeometry>
        </mxCell>
        <mxCell id="lIBIoVIttJ3UYo0YVn_F-82" value="i = i + 1" style="whiteSpace=wrap;html=1;" vertex="1" parent="1">
          <mxGeometry x="1760" y="690" width="120" height="60" as="geometry" />
        </mxCell>
        <mxCell id="lIBIoVIttJ3UYo0YVn_F-83" value="" style="edgeStyle=orthogonalEdgeStyle;rounded=0;orthogonalLoop=1;jettySize=auto;html=1;" edge="1" parent="1" source="lIBIoVIttJ3UYo0YVn_F-84" target="lIBIoVIttJ3UYo0YVn_F-85">
          <mxGeometry relative="1" as="geometry" />
        </mxCell>
        <mxCell id="lIBIoVIttJ3UYo0YVn_F-84" value="kvadrat" style="shape=document;whiteSpace=wrap;html=1;boundedLbl=1;" vertex="1" parent="1">
          <mxGeometry x="2010" y="500" width="120" height="80" as="geometry" />
        </mxCell>
        <mxCell id="lIBIoVIttJ3UYo0YVn_F-85" value="End" style="rounded=1;whiteSpace=wrap;html=1;" vertex="1" parent="1">
          <mxGeometry x="2010" y="640" width="120" height="60" as="geometry" />
        </mxCell>
        <mxCell id="lIBIoVIttJ3UYo0YVn_F-87" value="" style="edgeStyle=orthogonalEdgeStyle;rounded=0;orthogonalLoop=1;jettySize=auto;html=1;" edge="1" parent="1" source="lIBIoVIttJ3UYo0YVn_F-86" target="lIBIoVIttJ3UYo0YVn_F-84">
          <mxGeometry relative="1" as="geometry" />
        </mxCell>
        <mxCell id="lIBIoVIttJ3UYo0YVn_F-86" value="kvadrat = cem ** 2" style="rounded=0;whiteSpace=wrap;html=1;" vertex="1" parent="1">
          <mxGeometry x="2010" y="410" width="120" height="60" as="geometry" />
        </mxCell>
      </root>
    </mxGraphModel>
  </diagram>
</mxfile>
